Tracklist:
1. Intro
2. Vientos De Holocausto
3. Atomic Angel Assault
4. Terroreign
5. As Judea Burns
6. Goatfather
7. Bestial To The Bone
8. The Black Fuck
9. My Dark Subconscious (Morbid Cover)
10. Outro
Total playing time 35:44

APE Spectrum Scan: 
http://img824.imageshack.us/img824/9084/20101111103509capture.jpg

EAC LOG:
Exact Audio Copy V0.99 prebeta 5 from 4. May 2009

EAC extraction logfile from 17. September 2010, 18:35

Impiety / Terroreign

Used drive: MATSHITADVD-RAM UJ862BJ Adapter: 1 ID: 0

Read mode: Secure
Utilize accurate stream: Yes
Defeat audio cache: Yes
Make use of C2 pointers: No

Read offset correction: 102
Overread into Lead-In and Lead-Out: No
Fill up missing offset samples with silence: Yes
Delete leading and trailing silent blocks: No
Null samples used in CRC calculations: Yes
Used interface: Native Win32 interface for Win NT & 2000
Gap handling: Not detected, thus appended to previous track

Used output format: Monkey's Audio Lossless Encoder
Selected bitrate: Extra High Lossless Compression
Quality: High
Add ID3 tag: No
Command line compressor: C: \ Program Files \ Monkey's Audio \ MAC.exe

TOC of the extracted CD

     Track | Start | Length | Start sector | End sector
    -------------------------------------------------- -------
        1 | 0:00.00 | 0:56.40 | 0 | 4239
        2 | 0:56.40 | 2:03.71 | 4240 | 13535
        3 | 3:00.36 | 5:06.68 | 13536 | 36553
        4 | 8:07.29 | 5:23.07 | 36554 | 60785
        5 | 13:30.36 | 4:37.56 | 60786 | 81616
        6 | 18:08.17 | 4:13.39 | 81617 | 100630
        7 | 22:21.56 | 5:06.60 | 100631 | 123640
        8 | 27:28.41 | 3:53.19 | 123641 | 141134
        9 | 31:21.60 | 3:41.48 | 141135 | 157757
       10 | 35:03.33 | 0:46.37 | 157758 | 161244

Track 1

     Filename C: \ Users \ 92770 \ Downloads \ Impiety \ Terroreign \ 01 - Intro.wav

     Peak level 100.0%
     Track quality 100.0%
     Copy CRC 8AB555AF
     Accurately ripped (confidence 2) [9756E3DC]
     Copy OK

Track 2

     Filename C: \ Users \ 92770 \ Downloads \ Impiety \ Terroreign \ 02 - Vientos De Holocausto.wav

     Peak level 100.0%
     Track quality 100.0%
     Copy CRC DC8558EC
     Accurately ripped (confidence 2) [465DB1E3]
     Copy OK

Track 3

     Filename C: \ Users \ 92770 \ Downloads \ Impiety \ Terroreign \ 03 - Atomic Angel Assault.wav

     Peak level 100.0%
     Track quality 100.0%
     Copy CRC 8EE6604E
     Accurately ripped (confidence 3) [10545614]
     Copy OK

Track 4

     Filename C: \ Users \ 92770 \ Downloads \ Impiety \ Terroreign \ 04 - Terroreign.wav

     Peak level 100.0%
     Track quality 99.9%
     Copy CRC FE9276DB
     Accurately ripped (confidence 3) [489A5464]
     Copy OK

Track 5

     Filename C: \ Users \ 92770 \ Downloads \ Impiety \ Terroreign \ 05 - As Judea Burns.wav

     Peak level 100.0%
     Track quality 100.0%
     Copy CRC A88934E2
     Accurately ripped (confidence 3) [53E069E1]
     Copy OK

Track 6

     Filename C: \ Users \ 92770 \ Downloads \ Impiety \ Terroreign \ 06 - Goatfather.wav

     Peak level 100.0%
     Track quality 100.0%
     Copy CRC A9ABA272
     Accurately ripped (confidence 2) [565C39E8]
     Copy OK

Track 7

     Filename C: \ Users \ 92770 \ Downloads \ Impiety \ Terroreign \ 07 - Bestial to the Bone.wav

     Peak level 100.0%
     Track quality 100.0%
     Copy CRC 0DEC4D1A
     Accurately ripped (confidence 2) [4C3E07FB]
     Copy OK

Track 8

     Filename C: \ Users \ 92770 \ Downloads \ Impiety \ Terroreign \ 08 - The Black Fuck.wav

     Peak level 100.0%
     Track quality 100.0%
     Copy CRC 95EA9E6B
     Accurately ripped (confidence 2) [F64E86EB]
     Copy OK

Track 9

     Filename C: \ Users \ 92770 \ Downloads \ Impiety \ Terroreign \ 09 - My Dark Subconscious.wav

     Peak level 100.0%
     Track quality 100.0%
     Copy CRC 4C02DA7A
     Accurately ripped (confidence 3) [BAEC3B44]
     Copy OK

Track 10

     Filename C: \ Users \ 92770 \ Downloads \ Impiety \ Terroreign \ 10 - Outro.wav

     Peak level 100.0%
     Track quality 99.7%
     Copy CRC 7D0AE451
     Accurately ripped (confidence 3) [F74E73FF]
     Copy OK

All tracks accurately ripped

No errors occurred

End of status report